# xmcd
#
# Track frame offsets:
#	150
#	21068
#	47213
#	62841
#	79935
#	107721
#	130251
#	153171
#	184324
#	209785
#	235967
#	262998
#	309052
#
# Disc length: 4367 seconds
#
# Revision: 1
# Processed by: cddbd v1.5.2PL0 Copyright (c) Steve Scherf et al.
# Submitted via: EasyCDDAExtractor 10.0.6.1
#
DISCID=b0110d0d
DTITLE=Stratovarius - The Best of [CD 1)
DYEAR=2002
DGENRE=Rock and Roll
TTITLE0=Break The Ice
TTITLE1=4th Reich
TTITLE2=Reign Of Terror
TTITLE3=Against The Wind
TTITLE4=Lord Of The Wasteland
TTITLE5=Father Time
TTITLE6=Will The Sun Rise
TTITLE7=Eternity
TTITLE8=The Kiss Of Judas
TTITLE9=Black Diamond
TTITLE10=Forever Free
TTITLE11=Destiny
TTITLE12=Hunting High and Low
EXTD=
EXTT0=
EXTT1=
EXTT2=
EXTT3=
EXTT4=
EXTT5=
EXTT6=
EXTT7=
EXTT8=
EXTT9=
EXTT10=
EXTT11=
EXTT12=
PLAYORDER=
